<svg id="visual" viewBox="0 0 900 600" width="900" height="600" xmlns="http://www.w3.org/2000/svg" xmlns:xlink="http://www.w3.org/1999/xlink" version="1.1"><g transform="translate(446.77245757854763 308.46149562180705)"><path d="M129.3 -154C164 -125.1 185.9 -80.9 186.6 -38.6C187.3 3.7 166.8 44.1 145 85.5C123.2 126.8 100.1 169.1 67.7 177.1C35.3 185 -6.4 158.6 -40.6 135.7C-74.8 112.8 -101.5 93.4 -127.4 65.4C-153.4 37.4 -178.6 0.7 -180.1 -38.8C-181.5 -78.4 -159.2 -120.8 -125.3 -149.8C-91.3 -178.8 -45.6 -194.4 0.9 -195.4C47.4 -196.4 94.7 -182.9 129.3 -154" fill="#ffb633"></path></g></svg>