<svg id="visual" viewBox="0 0 900 600" width="900" height="600" xmlns="http://www.w3.org/2000/svg" xmlns:xlink="http://www.w3.org/1999/xlink" version="1.1"><g transform="translate(437.29480370028955 308.935687909281)"><path d="M86.9 -145.7C111.5 -119.5 129.4 -93.4 148.8 -64.1C168.2 -34.8 189 -2.3 184.5 26.3C179.9 54.8 150.1 79.5 121.7 96.9C93.3 114.4 66.5 124.7 36.1 142.5C5.8 160.3 -28.1 185.7 -58 183.4C-87.9 181.1 -113.9 151.1 -130.6 119.8C-147.3 88.5 -154.8 55.9 -158.1 23.6C-161.3 -8.7 -160.2 -40.7 -150.5 -71.5C-140.7 -102.3 -122.3 -131.9 -95.7 -157.3C-69.2 -182.7 -34.6 -203.8 -1.7 -201.2C31.2 -198.5 62.4 -172 86.9 -145.7" fill="#ffb633"></path></g></svg>